<svg id="_0380_fitness_2" data-name="0380_fitness_2" xmlns="http://www.w3.org/2000/svg" viewBox="0 0 500 500" data-imageid="fitness-2-30" imageName="Aptitud 2" class="illustrations_image" style="width: 185px;"><defs><style>.cls-1_fitness-2-30{fill:#fff;}.cls-2_fitness-2-30{fill:#231f20;}.cls-3_fitness-2-30{fill:#d1d3d4;}.cls-4_fitness-2-30{fill:#68e1fd;}</style></defs><g id="Left_Foot_fitness-2-30" data-name="Left Foot"><path class="cls-1_fitness-2-30" d="M284.77,256.43s21.68,10.64,18.13,20.49-67.8,57.56-67.8,57.56l-16.73-13L269,273Z"/><path class="cls-2_fitness-2-30" d="M235.1,335.12a.62.62,0,0,1-.39-.14L218,322a.62.62,0,0,1-.25-.47.6.6,0,0,1,.2-.49l50.62-48.49L284.3,256a.64.64,0,0,1,.75-.14c.9.45,22.15,11,18.45,21.29-3.57,9.92-65.39,55.9-68,57.85A.67.67,0,0,1,235.1,335.12Zm-15.75-13.7,15.76,12.25c5.37-4,63.88-47.79,67.19-57,3.05-8.48-14.45-18-17.4-19.5l-15.44,16.22Z"/><path class="cls-2_fitness-2-30" d="M216.94,220.05l75.71,34-31.4,27.59S196.47,243.81,198,235.54,216.94,220.05,216.94,220.05Z"/><path class="cls-2_fitness-2-30" d="M261.25,282.36a.75.75,0,0,1-.36-.1c-6.67-3.9-65.15-38.34-63.53-46.86s18.59-15.7,19.31-16a.73.73,0,0,1,.56,0l75.71,34a.7.7,0,0,1,.4.54.69.69,0,0,1-.23.63l-31.4,27.59A.69.69,0,0,1,261.25,282.36Zm-44.31-61.55c-2.2,1-16.83,7.6-18.21,14.86-1.07,5.64,37.54,30.55,62.43,45.13l30.21-26.55Z"/></g><g id="Bicycle_fitness-2-30"><rect class="cls-2_fitness-2-30" x="313.88" y="235.41" width="13.55" height="140.4"/><path class="cls-2_fitness-2-30" d="M327.43,376.51H313.88a.7.7,0,0,1-.7-.7V235.41a.71.71,0,0,1,.7-.7h13.55a.7.7,0,0,1,.7.7v140.4A.7.7,0,0,1,327.43,376.51Zm-12.85-1.4h12.15v-139H314.58Z"/><rect class="cls-2_fitness-2-30" x="175.49" y="250.85" width="14.27" height="76.79"/><path class="cls-2_fitness-2-30" d="M189.77,328.34H175.49a.7.7,0,0,1-.7-.7V250.85a.7.7,0,0,1,.7-.7h14.28a.7.7,0,0,1,.7.7v76.79A.7.7,0,0,1,189.77,328.34Zm-13.58-1.4h12.88V251.55H176.19Z"/><path class="cls-3_fitness-2-30" d="M205.64,250.91s-51.74-3.78-51.74,0,6.8,16.62,15.86,17.37,31-4.32,35.88-9.53S205.64,250.91,205.64,250.91Z"/><path class="cls-2_fitness-2-30" d="M171.65,269c-.71,0-1.35,0-1.94-.07-9.44-.79-16.45-14.11-16.45-18a1.1,1.1,0,0,1,.39-.84c3.48-3.24,47.08-.16,52,.2a.59.59,0,0,1,.26.07,5.14,5.14,0,0,1,2.46,3.39c.28,1.71-.5,3.55-2.3,5.46C201.21,264.38,181.4,269,171.65,269Zm-4.39-19.11c-7.25,0-12.14.34-12.75,1.14,0,3.12,6.53,15.89,15.3,16.62,9.16.76,30.73-4.41,35.37-9.32,1.51-1.61,2.18-3.08,2-4.38a3.77,3.77,0,0,0-1.71-2.41C191.6,250.53,177.21,249.88,167.26,249.88Z"/><path class="cls-1_fitness-2-30" d="M221.63,312.56s-28.82-15.81-60.35,0c-30.09,15.08-35.08,43.19-24.83,73.15,8,23.44,31.77,25.17,31.77,25.17H326s17.73-4.32,17.73-27-15.07-25.39-28.3-31.33S221.63,312.56,221.63,312.56Z"/><path class="cls-2_fitness-2-30" d="M326,411.52H168.22c-.29,0-24.31-2-32.37-25.6-11.55-33.76-2.62-60,25.14-73.93,31-15.55,59.8-.61,60.92,0,1.86.79,80.81,34.13,93.81,40,1.74.79,3.55,1.52,5.3,2.24,11.49,4.7,23.38,9.57,23.38,29.68,0,12-4.94,18.83-9.08,22.49a23.56,23.56,0,0,1-9.14,5.14A.41.41,0,0,1,326,411.52Zm0-.64h0ZM190.85,306.22a64.75,64.75,0,0,0-29.29,6.91c-27.12,13.6-35.82,39.3-24.5,72.37,7.78,22.75,31,24.73,31.2,24.74H325.94a23.11,23.11,0,0,0,8.58-4.88c5.71-5.07,8.6-12.3,8.6-21.49,0-19.25-11-23.74-22.59-28.5-1.75-.72-3.57-1.46-5.33-2.25-13.08-5.87-93-39.63-93.82-40l-.06,0A69.87,69.87,0,0,0,190.85,306.22Z"/><path class="cls-3_fitness-2-30" d="M234,402.91c-30.67,0-59.27-.67-66.28-3.26-14.81-5.48-29.32-29.93-19.33-57.28,4.27-11.69,16.4-30.73,49.68-27,23.33,2.62,116.43,46.79,129.49,54.22,5.05,2.87,7.73,12,5.73,19.57-1.28,4.86-5.52,13-19.43,13-5.15,0-13.36.11-23.76.24C274,402.64,253.57,402.91,234,402.91Zm-43.77-86.58c-14,0-32.5,4.55-40.53,26.52-9.69,26.54,4.25,50.21,18.51,55.49,11.22,4.15,80.49,3.23,121.87,2.68,10.4-.13,18.62-.24,23.78-.24,13,0,16.9-7.5,18.08-12,2-7.53-1-15.71-5.07-18-12.62-7.18-106.34-51.49-128.95-54h0A69,69,0,0,0,190.25,316.33Z"/><circle class="cls-2_fitness-2-30" cx="241.8" cy="368.12" r="28.39"/><path class="cls-2_fitness-2-30" d="M241.79,397.2a29.09,29.09,0,1,1,29.09-29.08A29.12,29.12,0,0,1,241.79,397.2Zm0-56.77a27.69,27.69,0,1,0,27.69,27.69A27.72,27.72,0,0,0,241.79,340.43Z"/><path class="cls-2_fitness-2-30" d="M295.89,241a4.2,4.2,0,0,1-1.24-8.21l57.24-17.76L370,175.52a4.2,4.2,0,1,1,7.64,3.5l-18.86,41.24a4.21,4.21,0,0,1-2.58,2.27l-59,18.31A4.22,4.22,0,0,1,295.89,241Z"/><rect class="cls-3_fitness-2-30" x="122.71" y="410.88" width="230.01" height="10.12" rx="3.61"/><path class="cls-2_fitness-2-30" d="M347.65,421.7H127.76a5.76,5.76,0,0,1,0-11.52H347.65a5.76,5.76,0,1,1,0,11.52ZM127.76,411.58a4.36,4.36,0,1,0,0,8.72H347.65a4.36,4.36,0,0,0,0-8.72Z"/></g><g id="Character_fitness-2-30"><path class="cls-1_fitness-2-30" d="M266.27,191.68c-4.88-6.81-17-51.16-27.15-51.59s-19.25,14.07-13.56,25.62,20.33,38.74,30.61,46c7.33,5.2,17,7.95,25.38,11,5.66,2.05,11.47,3.75,17.08,5.92,5,1.93,8.47,5.68,13.92,1.84,2.68-1.89,5.33-6.06,3.27-8.81-.89-1.19-4.08-2.16-5.39-2.86q-8.35-4.45-16.61-9.1C285.48,205,272.05,199.73,266.27,191.68Z"/><path class="cls-2_fitness-2-30" d="M307.9,232.8c-2.22,0-4.21-1-6.28-2.06-1-.52-2.09-1.06-3.22-1.5-3.2-1.23-6.52-2.33-9.73-3.4-2.41-.8-4.91-1.63-7.34-2.51q-2.31-.84-4.73-1.66c-7.25-2.51-14.75-5.11-20.8-9.4-12-8.47-28.92-42.43-30.81-46.28a19.37,19.37,0,0,1,1.53-19c3.2-4.91,7.94-7.72,12.63-7.52,7.28.31,14.89,20.29,21,36.34,2.74,7.18,5.1,13.38,6.63,15.52h0c4.35,6.06,13.14,10.53,20.89,14.47,2.32,1.18,4.52,2.3,6.46,3.39,5.09,2.87,10.52,5.84,16.59,9.09.38.2.94.43,1.55.68,1.56.65,3.33,1.39,4.06,2.35a4.58,4.58,0,0,1,.79,3.51,10.39,10.39,0,0,1-4.21,6.21A8.58,8.58,0,0,1,307.9,232.8Zm-69.23-92.08c-4.11,0-8.22,2.57-11.08,6.95a18.11,18.11,0,0,0-1.45,17.76c1.88,3.81,18.71,37.5,30.4,45.79,5.9,4.2,13.32,6.76,20.48,9.24,1.62.56,3.21,1.11,4.75,1.67,2.41.87,4.9,1.7,7.3,2.5,3.23,1.07,6.57,2.18,9.79,3.42a35.52,35.52,0,0,1,3.34,1.55c3.41,1.73,6.11,3.09,10,.36a9.16,9.16,0,0,0,3.68-5.36,3.2,3.2,0,0,0-.55-2.54c-.51-.69-2.25-1.41-3.52-1.93-.66-.28-1.25-.52-1.66-.74-6.08-3.25-11.52-6.23-16.62-9.11-1.92-1.08-4.1-2.19-6.41-3.36-7.88-4-16.81-8.55-21.35-14.87h0c-1.63-2.27-3.9-8.24-6.78-15.8-5.35-14-13.44-35.25-19.88-35.52Z"/><path class="cls-2_fitness-2-30" d="M189.69,201.58S165.57,226.05,164.54,242c-2.18,33.61,77.88,60.58,77.88,60.58l29.44-14.33-47.7-63.28Z"/><path class="cls-2_fitness-2-30" d="M242.42,303.25a.85.85,0,0,1-.22,0,276.62,276.62,0,0,1-39.88-17.73c-26.46-14.67-39.4-29.32-38.48-43.55,1-16,24.36-39.83,25.35-40.84a.7.7,0,0,1,.89-.08l34.47,23.35a.65.65,0,0,1,.17.16l47.7,63.28a.7.7,0,0,1,.12.59.69.69,0,0,1-.37.46l-29.44,14.33A.82.82,0,0,1,242.42,303.25ZM189.78,202.49c-3.15,3.29-23.61,25.17-24.54,39.53-2.06,31.73,72,58,77.14,59.77L270.79,288l-47.12-62.52Z"/><path class="cls-1_fitness-2-30" d="M224.68,82.61a21.78,21.78,0,0,0-4.8,6.36,105.35,105.35,0,0,0-6.28,13.29c-1.41,3.62-2.83,7.59-6.11,9.66-4,2.5-9.46,1.19-12.88-2,3.9,8.87,14.22,14,23.86,13.07s18.32-7.1,23.64-15.2a24.37,24.37,0,0,0,4-9.79C247.83,86.16,235.83,73.35,224.68,82.61Z"/><path class="cls-2_fitness-2-30" d="M216.22,123.81c-9.56,0-18.67-5.47-22.25-13.6a.7.7,0,0,1,1.12-.79c2.95,2.74,8.16,4.35,12,1.91,2.94-1.85,4.31-5.4,5.64-8.82l.2-.5a104.73,104.73,0,0,1,6.32-13.38,22.61,22.61,0,0,1,5-6.56h0c4.51-3.74,9.55-4.37,14.2-1.77,5.78,3.23,9.39,10.89,8.4,17.81a24.88,24.88,0,0,1-4.14,10.07c-5.8,8.85-14.83,14.65-24.15,15.52C217.77,123.77,217,123.81,216.22,123.81Zm-19.54-11.52c4.37,6.72,13,10.84,21.73,10,8.9-.84,17.54-6.4,23.11-14.89a23.34,23.34,0,0,0,3.92-9.5c.92-6.39-2.39-13.44-7.69-16.4-4.11-2.3-8.59-1.72-12.63,1.63a21.41,21.41,0,0,0-4.63,6.16,104.6,104.6,0,0,0-6.24,13.2l-.19.5c-1.35,3.47-2.87,7.41-6.2,9.51C204.34,114.73,200,114.16,196.68,112.29Z"/><path class="cls-2_fitness-2-30" d="M240.79,83.78a11.16,11.16,0,0,0-5.5,5,8.71,8.71,0,0,0-1.39,4.8A6.66,6.66,0,0,0,237,98.65a3.72,3.72,0,0,0,2.6.68,4.3,4.3,0,0,0,2-1.13C245.68,94.63,252.26,79.45,240.79,83.78Z"/><path class="cls-2_fitness-2-30" d="M239.16,100.07a4.73,4.73,0,0,1-2.52-.83,7.37,7.37,0,0,1-3.44-5.61,9.3,9.3,0,0,1,1.48-5.2,12.09,12.09,0,0,1,5.86-5.31c3.44-1.3,5.73-1.05,6.8.73,2.12,3.55-2.3,12.27-5.29,14.88a5,5,0,0,1-2.31,1.29A3.68,3.68,0,0,1,239.16,100.07Zm5.07-16.36a10,10,0,0,0-3.2.72h0a10.66,10.66,0,0,0-5.14,4.71,7.86,7.86,0,0,0-1.29,4.41,5.92,5.92,0,0,0,2.79,4.51,3.12,3.12,0,0,0,2.1.58,3.8,3.8,0,0,0,1.64-1c2.86-2.51,6.59-10.47,5-13.11A2.06,2.06,0,0,0,244.23,83.71Zm-3.44.07h0Z"/><path class="cls-1_fitness-2-30" d="M247.59,132.25c-2.34.52-4.83-.06-7.74-2.75a19.73,19.73,0,0,1-5-8.28,34,34,0,0,1,8.56-34.74c9.28-8.83,26.9-11.31,34.85.69a16.72,16.72,0,0,1,2,14,5,5,0,0,1,3.4,4.27c.71,4.9-1.65,7.8-5.67,10-6.61,3.66-13.59,6.64-20,10.6C254.18,128.33,251,131.47,247.59,132.25Z"/><path class="cls-2_fitness-2-30" d="M246.07,133.12c-2.24,0-4.45-1-6.7-3.1a20.38,20.38,0,0,1-5.18-8.58A34.88,34.88,0,0,1,242.92,86a28.53,28.53,0,0,1,22-7.53,18.7,18.7,0,0,1,14,8.34,17.35,17.35,0,0,1,2.27,13.88,5.9,5.9,0,0,1,3.23,4.62c.9,6.15-3,9.08-6,10.75-2.73,1.51-5.56,2.92-8.3,4.29-3.9,2-7.94,4-11.71,6.28-1.22.75-2.39,1.6-3.53,2.43-2.36,1.72-4.59,3.34-7,3.89l-.15-.68.15.68A8,8,0,0,1,246.07,133.12ZM262.18,79.7A27.35,27.35,0,0,0,243.89,87a33.45,33.45,0,0,0-8.38,34,19,19,0,0,0,4.81,8c2.48,2.29,4.74,3.11,7.12,2.57h0c2.16-.48,4.28-2,6.52-3.65,1.15-.84,2.35-1.71,3.62-2.49,3.82-2.35,7.89-4.38,11.82-6.34,2.72-1.37,5.54-2.77,8.24-4.27,4.33-2.39,5.92-5.18,5.32-9.32-.22-1.5-1.21-3.29-2.87-3.69a.69.69,0,0,1-.45-.33.73.73,0,0,1-.06-.56,15.91,15.91,0,0,0-1.91-13.35,17.43,17.43,0,0,0-13-7.72A23.4,23.4,0,0,0,262.18,79.7Z"/><path class="cls-1_fitness-2-30" d="M273.18,115s2.37,10.53.55,11.83-5.2-1.3-5.2-1.3"/><path class="cls-2_fitness-2-30" d="M272.49,127.88a8.51,8.51,0,0,1-4.38-1.81A.7.7,0,1,1,269,125c.77.59,3.23,2.09,4.36,1.29.77-.56.38-5.75-.83-11.12a.7.7,0,0,1,1.37-.3c.74,3.3,2.26,11.13.28,12.55A2.76,2.76,0,0,1,272.49,127.88Z"/><path class="cls-1_fitness-2-30" d="M276,103.85a16.9,16.9,0,0,1,.86,2.61,16.36,16.36,0,0,1,0,2.8c-.37,2.81-2.07,5.45-3.08,8.06q-3.25,8.37-6.88,16.57c-1.53,3.47-10.74.06-11.95-1.61-1.87,6.59-3.28,23.4-11.41,25.29a6.73,6.73,0,0,1-4.74-1c-9.78-5.46-5.91-14.44-3.23-22.34,2-6,3.85-12.06,5.78-18.08a15.38,15.38,0,0,0,2.68.46,14,14,0,0,0,7.14-2c5-2.6,9.49-5.52,12.92-10.14-.12,1.53-1,4.4.75,5.18,1.37.6,4.72-1.16,6-1.69a10.14,10.14,0,0,0,5.13-4.15S276,103.82,276,103.85Z"/><path class="cls-2_fitness-2-30" d="M242.47,158.39a8.35,8.35,0,0,1-4-1.18c-9.68-5.41-6.7-14.05-4.06-21.68l.51-1.5c1.35-4,2.63-8.06,3.86-12q.94-3,1.91-6h0a.71.71,0,0,1,.88-.45.56.56,0,0,1,.17.09c.45.11,2.05.32,2.34.34a13.41,13.41,0,0,0,6.78-1.94c4.26-2.22,9.1-5.13,12.68-9.94a.7.7,0,0,1,.81-.23.69.69,0,0,1,.45.71c0,.31-.08.68-.14,1.08-.26,1.63-.4,3,.47,3.4s3.53-.84,4.68-1.36l.76-.34a9.28,9.28,0,0,0,4.78-3.83.71.71,0,0,1,.61-.37.77.77,0,0,1,.64.34h0v0h0a15.16,15.16,0,0,1,1,2.91,16.84,16.84,0,0,1,0,2.95,19.45,19.45,0,0,1-2,5.74c-.4.86-.78,1.67-1.1,2.49-2.16,5.55-4.48,11.14-6.89,16.59a3.41,3.41,0,0,1-3,1.88c-2.91.31-7.14-1.16-9.16-2.52-.28,1.15-.55,2.52-.86,4-1.64,8.05-3.89,19.08-10.78,20.69A5.43,5.43,0,0,1,242.47,158.39Zm-.68-41.34q-.85,2.69-1.69,5.39c-1.24,4-2.52,8.05-3.88,12l-.51,1.5c-2.57,7.46-5.23,15.17,3.42,20a6.23,6.23,0,0,0,4.25.9c6-1.4,8.24-12.35,9.71-19.6.42-2,.78-3.82,1.17-5.2a.72.72,0,0,1,.55-.5.69.69,0,0,1,.69.28c.67.91,5.69,3.12,8.84,2.78a2.11,2.11,0,0,0,1.91-1.05c2.41-5.43,4.72-11,6.87-16.53.33-.86.74-1.73,1.14-2.58a18.74,18.74,0,0,0,1.89-5.32,13.8,13.8,0,0,0,0-2.65c0-.14-.19-.69-.36-1.22a11.64,11.64,0,0,1-4.7,3.31l-.72.33c-2.31,1-4.5,1.94-5.82,1.36s-1.59-2.09-1.48-3.47a39.71,39.71,0,0,1-11.58,8.41c-2.56,1.33-4.79,2.21-7.5,2.1A19.21,19.21,0,0,1,241.79,117.05Z"/><path class="cls-1_fitness-2-30" d="M268.34,129.67s-5.34,1-5.95-4.34"/><path class="cls-2_fitness-2-30" d="M267.33,130.45a6,6,0,0,1-3.56-1.06,5.45,5.45,0,0,1-2.08-4,.7.7,0,0,1,.62-.77.69.69,0,0,1,.77.61,4.13,4.13,0,0,0,1.52,3,5.13,5.13,0,0,0,3.61.72.7.7,0,1,1,.26,1.38A6.34,6.34,0,0,1,267.33,130.45Z"/><path class="cls-2_fitness-2-30" d="M254.94,132.28s-4.63-2-5.6-6.11c0,0-1.94,5.71,4.42,10.94Z"/><path class="cls-2_fitness-2-30" d="M253.76,137.81a.75.75,0,0,1-.45-.16c-6.65-5.47-4.72-11.46-4.64-11.71a.68.68,0,0,1,.7-.47.7.7,0,0,1,.65.53c.88,3.71,5.15,5.62,5.2,5.64a.69.69,0,0,1,.4.8l-1.18,4.84a.69.69,0,0,1-.46.49A.57.57,0,0,1,253.76,137.81Zm-4-9a10.45,10.45,0,0,0,3.58,7l.77-3.16A12.19,12.19,0,0,1,249.77,128.85Z"/><ellipse class="cls-2_fitness-2-30" cx="272.31" cy="111.56" rx="2.14" ry="0.84" transform="translate(56.82 311.97) rotate(-65.2)"/><path class="cls-1_fitness-2-30" d="M260.69,113.51a8.06,8.06,0,0,0-.11-4.43,11.48,11.48,0,0,0-1.06-3.3,3.92,3.92,0,0,0-2.66-2.06,3.65,3.65,0,0,0-2.85.9,6.7,6.7,0,0,0-1.75,2.51,12.81,12.81,0,0,0,1.49,12.73l-.18-.45"/><path class="cls-2_fitness-2-30" d="M253.75,120.56a.67.67,0,0,1-.55-.27,13.58,13.58,0,0,1-1.58-13.45,7.46,7.46,0,0,1,1.94-2.76A4.33,4.33,0,0,1,257,103a4.6,4.6,0,0,1,3.16,2.41,12.3,12.3,0,0,1,1.14,3.51,8.7,8.7,0,0,1,.08,4.81.69.69,0,0,1-.89.42.68.68,0,0,1-.42-.89,7.84,7.84,0,0,0-.14-4,11.2,11.2,0,0,0-1-3.11,3.24,3.24,0,0,0-2.16-1.71,3,3,0,0,0-2.29.74,6.08,6.08,0,0,0-1.56,2.26,12.19,12.19,0,0,0,1,11.39.62.62,0,0,1,.36.35l.18.45a.71.71,0,0,1-.3.87A.73.73,0,0,1,253.75,120.56Z"/><path class="cls-4_fitness-2-30 targetColor" d="M260.83,172.06c1.56-22.6-31.25-60.4-53.16-33.37-9,11.14-8.44,47.05-32.18,79.83,24.08-12.18,52.37,6.32,52.51,6.42,1.4.92,8.29-10.11,8.86-11A133.2,133.2,0,0,0,246,196.38a67.79,67.79,0,0,1,3.66-7.81S260.16,181.8,260.83,172.06Z" style="fill: rgb(104, 225, 253);"/><path class="cls-4_fitness-2-30 targetColor" d="M228.2,225.69a1.08,1.08,0,0,1-.58-.17,74.4,74.4,0,0,0-17.18-7.75c-9.06-2.78-22.42-4.8-34.63,1.38A.72.72,0,0,1,175,219a.71.71,0,0,1,0-.87c14.44-20,19.91-41.39,23.91-57.05,2.61-10.26,4.68-18.37,8.28-22.81,9.35-11.53,19.69-10.65,26.72-7.88,15,5.91,28.73,26.59,27.69,41.74h0c-.65,9.47-10,16.06-11.33,16.95a55.58,55.58,0,0,0-3,6.24l-.58,1.35a134.07,134.07,0,0,1-9.2,17.62c-2,3.27-7,10.94-9,11.39Zm.18-1.34Zm-34.67-10.7c17.41,0,32.77,9.48,34.54,10.61,1.06-.45,4.52-5.07,8-10.73a132.44,132.44,0,0,0,9.11-17.43l.57-1.35a54.34,54.34,0,0,1,3.13-6.54.8.8,0,0,1,.22-.23c.1-.07,10.19-6.7,10.83-16h0c1-14.64-12.27-34.63-26.81-40.35-6.59-2.6-16.3-3.41-25.11,7.46-3.41,4.2-5.44,12.18-8,22.27-3.88,15.21-9.14,35.85-22.61,55.39A41.15,41.15,0,0,1,193.71,213.65Zm67.12-41.59h0Z" style="fill: rgb(104, 225, 253);"/><path class="cls-2_fitness-2-30" d="M230.32,140c-11-9.41-16.17,9.88-16.72,17.09a72.07,72.07,0,0,0,6.55,35.13,10,10,0,0,0,3.11,4.29c2.46,1.69,6,1,8.3-.89s3.6-4.77,4.5-7.62c2.58-8.09,2.66-16.75,2.24-25.23C237.89,154.5,236.6,145.39,230.32,140Z"/><path class="cls-2_fitness-2-30" d="M226.51,198.18a6.42,6.42,0,0,1-3.65-1.09,10.6,10.6,0,0,1-3.34-4.58A72.3,72.3,0,0,1,212.9,157c.41-5.36,3.24-17.24,9.4-19.79,2.63-1.09,5.48-.35,8.47,2.22h0c6.51,5.58,7.81,14.89,8.22,23.26.39,7.86.43,17-2.26,25.49-.75,2.35-2,5.73-4.72,7.94A8.9,8.9,0,0,1,226.51,198.18Zm-1.82-60a4.74,4.74,0,0,0-1.85.37c-5.2,2.15-8.13,13.18-8.54,18.6a70.83,70.83,0,0,0,6.49,34.79,9.36,9.36,0,0,0,2.86,4c2.31,1.58,5.51.77,7.47-.85,2.38-2,3.58-5.1,4.28-7.29,2.62-8.23,2.58-17.25,2.2-25-.4-8.07-1.64-17-7.74-22.27h0A8.21,8.21,0,0,0,224.69,138.17Z"/><path class="cls-1_fitness-2-30" d="M255,191.68c-4.89-6.81-17-51.16-27.16-51.59s-19.25,14.07-13.56,25.62,20.33,38.74,30.61,46,63.43,23.66,63.43,23.66l7.43-.47s-4.76,3.5-1.83,3.75,18.67-3,17.23-9.14-9.23-9.37-10.89-10.18-13.59,3.43-13.59,3.43S259.84,198.49,255,191.68Z"/><path class="cls-2_fitness-2-30" d="M314.19,239.34h-.36c-1-.09-1.39-.57-1.5-1-.22-.8.54-1.81,1.45-2.67l-5.46.34a.56.56,0,0,1-.22,0c-2.18-.67-53.38-16.48-63.62-23.75-11.94-8.47-28.92-42.43-30.81-46.28a19.37,19.37,0,0,1,1.53-19c3.2-4.91,7.92-7.72,12.63-7.52,7.28.31,14.89,20.29,21,36.34,2.74,7.18,5.1,13.38,6.64,15.52h0c4.56,6.36,47.53,28.88,51.19,30.79,3.14-1.11,12.11-4.14,13.83-3.31l.43.21c2.33,1.09,9.41,4.38,10.81,10.41a4.3,4.3,0,0,1-1.13,3.93C327.06,237.45,317,239.34,314.19,239.34Zm-.61-1.33c.05,0,.16,0,.36,0,2.4.19,12.53-1.87,15.7-5.54a3,3,0,0,0,.85-2.81c-1.26-5.42-7.91-8.52-10.1-9.54l-.45-.21c-.95-.42-7.53,1.47-13.1,3.45a.65.65,0,0,1-.51,0c-1.92-1-47-24.45-51.89-31.31-1.64-2.27-3.91-8.24-6.79-15.8-5.35-14-13.44-35.25-19.88-35.52-4.26-.15-8.55,2.42-11.49,6.94a18.09,18.09,0,0,0-1.46,17.76c1.88,3.81,18.71,37.51,30.4,45.79,9.85,7,60.4,22.7,63.14,23.55l7.31-.46a.68.68,0,0,1,.64.42.63.63,0,0,1-.22.73,8.19,8.19,0,0,0-2.51,2.55Z"/><path class="cls-1_fitness-2-30" d="M242.42,302.55s-7.72,41-.62,74.89l17.54,2.17s13.41-75.75,12.52-91.39Z"/><path class="cls-2_fitness-2-30" d="M259.34,380.25h-.08l-17.54-2.16a.64.64,0,0,1-.55-.51c-7-33.63.55-74.73.62-75.14a.66.66,0,0,1,.35-.46l29.44-14.32a.66.66,0,0,1,.61,0,.64.64,0,0,1,.31.52c.89,15.53-12,88.43-12.53,91.53A.63.63,0,0,1,259.34,380.25Zm-17-3.39,16.49,2c1.23-7,12.75-73.19,12.44-89.67L243,303C242.31,306.84,235.82,345.12,242.33,376.86Z"/><rect class="cls-1_fitness-2-30" x="238.4" y="396.7" width="37.98" height="5.6" rx="2" transform="translate(40.86 -23.54) rotate(5.69)"/><path class="cls-2_fitness-2-30" d="M273.51,404.55l-.35,0-32.22-3.21a3.44,3.44,0,1,1,.68-6.84l32.22,3.21a3.43,3.43,0,0,1,3.08,3.76,3.44,3.44,0,0,1-3.41,3.1Zm-32.23-8.81a2.16,2.16,0,0,0-.22,4.31l32.23,3.21h0a2.19,2.19,0,0,0,1.58-.48,2.17,2.17,0,0,0,.78-1.46,2.16,2.16,0,0,0-1.93-2.36l-32.23-3.21Z"/><path class="cls-1_fitness-2-30" d="M262.21,276.06a.62.62,0,0,1-.51-.26L228,231.1a.64.64,0,1,1,1-.77L262.72,275a.65.65,0,0,1-.13.9A.67.67,0,0,1,262.21,276.06Z"/><path class="cls-1_fitness-2-30" d="M241.8,377.44s-4.09,13.2-.12,15.77c4.55,3,42.56,7.75,45.84,4.93s-28.18-18.53-28.18-18.53Z"/><path class="cls-2_fitness-2-30" d="M281.08,399.59c-12.17,0-36-3.44-39.75-5.84-4.25-2.76-.58-15.1-.15-16.5a.65.65,0,0,1,.69-.44L259.42,379a.58.58,0,0,1,.21.07c4.71,2.35,28.25,14.29,28.76,18.4a1.29,1.29,0,0,1-.45,1.18C287.15,399.3,284.6,399.59,281.08,399.59Zm-38.83-21.45c-1.13,3.88-3,12.73-.22,14.53,4.88,3.16,42.37,7.31,45.08,5,.4-1.72-12.14-9.52-28-17.42Z"/></g></svg>